# xmcd
#
# Track frame offsets:
# 151
# 7104
# 15615
# 21943
# 30084
# 35411
# 43366
# 49450
# 59746
# 66815
# 74387
# 82166
# 90961
# 96954
# 107825
# 114271
# 123309
# 129949
# 137165
# 146567
# 156236
# 166728
# 177321
# 185093
# 189737
# 196456
# 206040
# 213559
# 220589
# 229137
# 236430
#
# Disc length: 3280 seconds
#
#
# Revision: 0
# Processed by: cddbd v1.5.2PL0 Copyright (c) Steve Scherf et al.
# Submitted via: FreeRIP 2.60 
#
DISCID=c70cce1f
DTITLE=Various Artist - 31 Bluegrass Favorites
DYEAR=2007
DGENRE=Bluegrass
TTITLE0=Goin' down the country - Mac Martin and The Dixie Travelers
TTITLE1=Old Joe Clark - Earl Taylor and Jim McCall with The Stoney Mountain Boys
TTITLE2=I Don't Love Nobody - Reno and Harrell with The Tennessee Cut-Ups
TTITLE3=Silver Bells - Red Smiley and The Bluegrass Cut-Ups
TTITLE4=Cotton Eyed Joe - Mac Martin and The Dixie Travelers
TTITLE5=Hot Cord - Cold Corn - Bob Ensigh and The Stump Jumpers
TTITLE6=Limehouse Blues - Reno and Harrell with The Tennessee Cut-Ups
TTITLE7=Mississippi Sawyer - Mac Martin and The Dixie Travelers
TTITLE8=Johnson's Mule - Bob Ensigh and The Stump Jumpers
TTITLE9=Devil's Nightmare - Red White and The Dixie Blue Grass Band
TTITLE10=Ida Red - Dewayne Wear and The Wear Family
TTITLE11=Kitty Clyde - Bob Ensigh and The Stump Jumpers
TTITLE12=My Bonnie Banjo - Mac Martin and The Dixie Travelers
TTITLE13=Paddy On The Turnpike - Log Cabin Boys
TTITLE14=Red Apple Rag - Jim Greer and The Mac-O-Chee Valley Folks
TTITLE15=Weary Lonesome Blues - Mac Martin and The Dixie Travelers
TTITLE16=Cripple Creek - Dewayne Wear and The Wear Family
TTITLE17=Omie Wise's Tragic Romance - Bob Ensigh and The Stump Jumpers
TTITLE18=Dixie Breakdown - Mac Martin and The Dixie Travelers
TTITLE19=Kansas City Railroad Blues - Reno and Smiley with The Tennessee Cut-Ups
TTITLE20=Blue Ridge Breakdown - Roy Ross and His Blue Ridge Mountain Boys
TTITLE21=Pat's Train Special - Raymond Fairchild with The Frosty Mountain Boys
TTITLE22=Lee Highway Blues - Mac Martin and The Dixie Travelers
TTITLE23=Big Ball In Memphis - Clarence "Hound Dog" Jackson
TTITLE24=John Henry - Red White and The Dixie Blue Grass Band
TTITLE25=Mustang - Mac Martin and The Dixie Travelers
TTITLE26=Fireball Mail - Hylo Brown and The Timberliners
TTITLE27=Dixie - Raymond Fairchild with The Frosty Mountain Boys
TTITLE28=Cindy - Dewayne Wear and The Wear Family
TTITLE29=Durham's Reel - Mac Martin and The Dixie Travelers
TTITLE30=Train 45 - Log Cabin Boys
EXTD=Pride and Tradition
EXTT0=Mac Martin and The Dixie Travelers
EXTT1=Earl Taylor and Jim McCall with The Stoney Mountain Boys
EXTT2=Reno and Harrell with The Tennessee Cut-Ups
EXTT3=Red Smiley and The Bluegrass Cut-Ups
EXTT4=Mac Martin and The Dixie Travelers
EXTT5=Bob Ensigh and The Stump Jumpers
EXTT6=Reno and Harrell with The Tennessee Cut-Ups
EXTT7=Mac Martin and The Dixie Travelers
EXTT8=Bob Ensigh and The Stump Jumpers
EXTT9=Red White and The Dixie Blue Grass Band
EXTT10=Dewayne Wear and The Wear Family
EXTT11=Bob Ensigh and The Stump Jumpers
EXTT12=Mac Martin and The Dixie Travelers
EXTT13=Log Cabin Boys
EXTT14=Jim Greer and The Mac-O-Chee Valley Folks
EXTT15=Mac Martin and The Dixie Travelers
EXTT16=Dewayne Wear and The Wear Family
EXTT17=Bob Ensigh and The Stump Jumpers
EXTT18=Mac Martin and The Dixie Travelers
EXTT19=Reno and Smiley with The Tennessee Cut-Ups
EXTT20=Roy Ross and His Blue Ridge Mountain Boys
EXTT21=Raymond Fairchild with The Frosty Mountain Boys
EXTT22=Mac Martin and The Dixie Travelers
EXTT23=Clarence "Hound Dog" Jackson
EXTT24=Red White and The Dixie Blue Grass Band
EXTT25=Mac Martin and The Dixie Travelers
EXTT26=Hylo Brown and The Timberliners
EXTT27=Raymond Fairchild with The Frosty Mountain Boys
EXTT28=Dewayne Wear and The Wear Family
EXTT29=Mac Martin and The Dixie Travelers
EXTT30=Log Cabin Boys
PLAYORDER=
